<svg width="165" height="70" viewBox="0 0 165 70" fill="currentColor">
    <path
        d="M93.9214 46.8691C95.5443 46.0375 96.2193 45.3625 97.0523 43.7396C97.8838 45.3625 98.5589 46.0375 100.182 46.8691C98.5589 47.7021 97.8838 48.3771 97.0523 50C96.2193 48.3771 95.5443 47.7092 93.9214 46.8691Z"></path>
    <path
        d="M44.5446 27.9232C46.1675 27.0904 46.8426 26.4156 47.6741 24.793C48.5071 26.4156 49.1821 27.0904 50.805 27.9232C49.1821 28.7546 48.5071 29.4294 47.6741 31.0534C46.8426 29.4294 46.1675 28.7546 44.5446 27.9232Z"></path>
    <path
        d="M120.395 32.7675C122.019 31.9347 122.693 31.2613 123.526 29.6374C124.358 31.2613 125.033 31.9347 126.656 32.7675C125.033 33.6003 124.358 34.2752 123.526 35.8977C122.694 34.2795 122.019 33.6047 120.395 32.7675Z"></path>
    <path
        d="M54.4067 34.1326C57.2765 34.1326 60.2899 35.3955 62.3246 36.7833V34.851C62.3246 32.2247 60.8394 31.7664 59.5035 31.7664H52.362L51.5369 29.6488H61.135C63.7322 29.6488 65.4641 31.4073 65.4885 34.851V42.5055H62.3188V39.9784C60.4133 41.3906 56.7514 42.6535 54.0552 42.6535C51.4078 42.6535 47.8449 41.4639 47.8449 38.4871C47.8449 35.5104 51.4078 34.1326 54.4067 34.1326ZM51.0175 38.4426C51.0175 40.4985 53.4669 41.1177 55.1787 41.1177C58.1231 41.1177 61.1164 39.3089 62.3289 38.5417V38.2946C61.6846 37.8478 58.667 35.7431 55.2978 35.7431C53.3377 35.7431 51.0117 36.4615 51.0117 38.4426H51.0175Z"></path>
    <path d="M138.131 24.0502L134.947 23L134.96 42.5056H138.131V24.0502Z"></path>
    <path
        d="M27 29.1101H30.1668V32.8699C31.4784 30.9893 34.6696 29.1101 38.0589 29.1101C43.0566 29.1101 46.5693 32.4001 46.5693 36.0607C46.5693 39.9684 43.18 42.6391 38.3057 42.6391C35.1646 42.6391 31.5271 40.635 30.1668 38.707V48.2134H27V29.1101ZM37.4404 40.9195C41.2501 40.9195 43.4025 38.8061 43.4025 36.121C43.4025 33.1371 40.9043 30.8758 37.119 30.8758C33.1601 30.8758 30.1668 33.808 30.1668 35.7978C30.1668 37.8364 33.4083 40.9195 37.4404 40.9195Z"></path>
    <path
        d="M82.4951 29.1302V24.1019L85.5859 23V29.6489H91.3255L90.5836 31.7737H85.5873V37.0319C85.5873 39.0877 86.256 40.4497 88.5561 40.4497H92.8867V42.5056H87.5675C84.1782 42.5056 82.4204 40.1279 82.4204 36.8825L82.4951 29.1302Z"></path>
    <path
        d="M100.594 31.7708V29.6489H104.157V28.3444C104.157 25.3461 106.036 23.2414 109.252 23.2414H113.781V25.8733H110.225C108.147 25.8733 107.331 26.9638 107.331 28.7725V29.6561H112.664L112.196 31.778H107.318V42.5099H104.157V31.7737L100.594 31.7708Z"></path>
    <path d="M98.6408 30.9807L95.4567 29.929L95.471 42.5056H98.6408V30.9807Z"></path>
    <path
        d="M129.219 29.6488L129.23 35.8897C129.23 36.0046 129.23 36.3824 129.214 36.4773C129.064 39.2658 127.049 40.8016 123.545 40.8016C120.041 40.8016 118.026 39.2658 117.874 36.4672C117.864 36.3882 117.86 36.0218 117.86 35.8925L117.871 29.6517H114.756V36.1871C114.756 40.3692 117.877 42.6721 123.544 42.6721C129.21 42.6721 132.332 40.3735 132.332 36.1871V29.6488H129.219Z"></path>
    <path
        d="M71.0201 29.1101V32.9762C72.455 30.6775 74.781 29.2107 77.724 29.2107C78.5092 29.2275 79.2856 29.3786 80.0199 29.6575L79.9998 31.7636C79.3196 31.4504 78.5405 31.3671 77.724 31.3671C72.9974 31.3671 71.0201 35.3524 71.0201 36.5937V42.507H67.8533V29.1101H71.0201Z"></path>
</svg>