<svg width="29" height="49" viewBox="0 0 29 49" fill="none" xmlns="http://www.w3.org/2000/svg">
    <path fill-rule="evenodd" clip-rule="evenodd"
        d="M1.17115 21.2212C0.421262 21.9713 0 22.9885 0 24.0492C0 25.1099 0.421262 26.1271 1.17115 26.8772L21.1711 46.8772C21.5401 47.2592 21.9815 47.564 22.4695 47.7736C22.9575 47.9832 23.4824 48.0936 24.0135 48.0982C24.5447 48.1028 25.0714 48.0016 25.563 47.8005C26.0545 47.5994 26.5012 47.3023 26.8767 46.9268C27.2523 46.5512 27.5493 46.1046 27.7504 45.613C27.9516 45.1214 28.0528 44.5947 28.0481 44.0636C28.0435 43.5325 27.9332 43.0076 27.7236 42.5196C27.5139 42.0316 27.2092 41.5902 26.8271 41.2212L6.82715 21.2212C6.07704 20.4713 5.0598 20.05 3.99915 20.05C2.93849 20.05 1.92126 20.4713 1.17115 21.2212V21.2212Z"
        fill="#14ACB6" />
    <path fill-rule="evenodd" clip-rule="evenodd"
        d="M26.8271 6.87715C27.2092 6.50817 27.5139 6.06679 27.7235 5.57877C27.9332 5.09075 28.0435 4.56587 28.0481 4.03476C28.0528 3.50364 27.9516 2.97692 27.7504 2.48534C27.5493 1.99375 27.2523 1.54714 26.8767 1.17157C26.5012 0.796002 26.0545 0.49899 25.563 0.297866C25.0714 0.0967426 24.5447 -0.00446424 24.0135 0.000151027C23.4824 0.00476629 22.9575 0.115111 22.4695 0.324747C21.9815 0.534383 21.5401 0.839112 21.1711 1.22115L2.17114 20.2212C2.54206 19.8491 2.98285 19.5541 3.46818 19.3529C3.9535 19.1518 4.47379 19.0486 4.99914 19.0492C5.52438 19.0483 6.0446 19.1514 6.52979 19.3526C7.01499 19.5537 7.45557 19.8489 7.82614 20.2212L10.6561 23.0492L26.8271 6.87715Z"
        fill="#14ACB6" fill-opacity="0.42" />
</svg>
    